<?xml version="1.0" encoding="utf-8"?>
<!-- Generator: Adobe Illustrator 21.1.0, SVG Export Plug-In . SVG Version: 6.00 Build 0)  -->
<svg version="1.1" id="图层_1" xmlns="http://www.w3.org/2000/svg" xmlns:xlink="http://www.w3.org/1999/xlink" x="0px" y="0px"
	 viewBox="0 0 768.7 409" style="enable-background:new 0 0 768.7 409;" xml:space="preserve">
<style type="text/css">
	.st0{display:none;}
	.st1{display:inline;}
	.st2{fill:#FFFFFF;}
</style>
<g id="图层_1_1_">
</g>
<g class="st0">
	<path class="st1" d="M557.8,307h11.9v-13H555v-6.2h47v6.2h-15.3v13.1H599v69.2h-6.2v-6H564v6.2h-6.3L557.8,307L557.8,307z M581,328
		v-14.9h-5.4v4.5c0,9.6-2.4,18-7.3,25.2c-1.3-1.3-2.7-2.6-4.2-4v7.6h28.8v-9.7h-4.8C583.4,336.7,581,333.8,581,328z M564,337.7
		c3.8-5.4,5.7-12.2,5.7-20.3v-4.3H564V337.7z M564,364.3h28.8v-11.8H564V364.3z M575.5,307h5.4v-13h-5.4V307z M592.9,313.1h-6.1
		v13.7c0,2.8,1.2,4.2,3.6,4.1h2.4L592.9,313.1L592.9,313.1L592.9,313.1z M602.5,322H625v-17h-11.6c-1.3,4.3-2.8,8.6-4.4,12.9
		c-2.3-0.9-4.7-1.7-7.1-2.4c3.8-8.7,6.7-18.5,8.9-29.4l7,1.4c-0.7,3.6-1.6,7.3-2.5,10.9h9.8v-16.7h7v16.6h16.1v6.6h-16.1v17h19v6.6
		h-48.5L602.5,322L602.5,322z M607.2,337.8h39.5v39.3H640V371h-25.8v6.1h-6.8v-39.3H607.2z M640,344.2h-25.8v20.3H640V344.2z"/>
	<path class="st1" d="M657.5,369.3c16.3-2.5,29.7-6.7,40-12.5c-8.5-4-17.5-8.1-27-12.3c3.1-4.6,6.1-9.4,9.1-14.5H654v-7.2h29.9
		c3.3-5.8,6.5-11.8,9.8-18l7.7,3.2c-2.9,5-5.7,10-8.4,14.7h58v7.2h-20.9c-3.3,9.9-8.9,18.3-16.8,25.3c10.3,4.6,20.5,9.3,30.7,14.1
		l-4.8,7.8c-9.9-5.2-20.9-10.7-33-16.4c-11.3,7.6-26.2,13.1-44.5,16.5C660.5,374.9,659,372.2,657.5,369.3z M658.9,295.6h44
		c-2.5-3.6-5.3-7.3-8.5-11l6.5-4.4c4,4.3,7.3,8.4,10.1,12.4l-4.5,3h39.9v18.6h-7.9v-11.4h-71.8v11.3h-7.8V295.6L658.9,295.6z
		 M681.9,341.6c7.8,3.4,15.6,6.8,23.3,10.2c7.8-5.9,13.2-13.2,16.4-21.7h-32.8C686.4,334,684,337.9,681.9,341.6z"/>
</g>
<g id="图层_2">
	<path class="st2" d="M674.8,192c-52.6-94.3-97.2-173.9-99.3-177.2l-0.4-0.4C569.6,6,559.9,0.5,549.4,0.5c-1.3,0-2.1,0-3.4,0.4
		c-9.3,0.8-17.3,5.1-22.7,11.8c-7.6,9.7-17.7,26.5-35.4,56.8C409.6,203.8,373.4,253.9,326.2,293c-47.6,39.6-101,53.5-153.2,40
		c-11.8-2.9-21.5-6.7-30.7-11.8c-22.3-11.8-40.8-29.5-53.5-50.9c-6.3-9.7-10.5-19.4-13-31.6c-2.9-10.5-4.2-21.9-4.2-33.7
		c0-24,6.3-46.7,17.7-66.1c0,0,0,0,0-0.4c0.8-1.3,1.3-2.5,2.1-3.4c11.4-18.5,27.4-33.3,46.3-44.2c0.8-0.4,2.1-1.3,2.9-1.7
		c0.8-0.4,1.7-0.8,2.5-1.3c1.7-0.8,3.4-1.7,4.6-2.5c0.4-0.4,0.8-0.4,1.3-0.4c2.1-0.8,4.2-1.7,5.9-2.5c0.4,0,0.4-0.4,0.8-0.4
		c1.7-0.8,3.4-1.3,5.1-1.7c20.6-6.7,43.4-9.3,68.2-6.3c48.8,5.1,85.9,24.8,147.3,76.6c7.6,6.3,14.7,11.8,15.6,11.8
		c2.9,0,56-38.3,56.8-40.8c1.3-3.4-53.9-48.4-84.2-69.5c-25.3-17.3-62.3-35.8-84.2-42.1c-16-4.6-34.1-7.6-51.8-8.8
		c-8-0.8-15.6-1.3-24-1.3C91.3,0,0,91.8,0,204.6c0,0.4,0,0.4,0,0.4c0,2.5,0,4.6,0.4,6.7c2.5,76.2,47.1,141.9,110.7,174.7
		c0.8,0.4,1.3,0.8,2.1,0.8c1.3,0.4,2.5,1.3,3.4,1.7c14.3,7.2,29.9,12.2,46.3,15.6c1.3,0.4,2.5,0.4,3.4,0.8c1.3,0.4,2.9,0.4,4.2,0.8
		c10.9,2.1,22.3,2.9,33.7,2.9c0.4,0,0.8,0,1.3,0s0.8,0,1.3,0c28.2,0,57.7-5.1,81.7-14.3c52.6-19.4,112.4-70.7,158.3-135.6
		c14.7-20.6,45.9-69.9,84.2-133c6.7-11.8,13.5-21,14.3-20.2c2.5,2.5,76.2,136.8,75.4,137.7c-0.4,0.4-17.7-11.8-39.1-27.8
		c-24-17.3-39.6-27.8-41.3-26.5c-9.3,5.1-55.1,38.7-55.1,40.4c0,0.8,29.5,23.6,65.7,50.1c35.8,26.5,90.1,66.5,119.6,88.8
		c50.1,37,55.1,40.4,64,40.4c19.4,0,34.1-15.2,34.1-35.4C769.5,364.6,761.9,350.3,674.8,192z"/>
</g>
</svg>
